<svg xmlns="http://www.w3.org/2000/svg" width="960" height="470" viewBox="0 0 960 470" font-family="Helvetica, Arial, sans-serif">
<rect x="0" y="0" width="960" height="470" fill="#ffffff"/>
<text x="480.0" y="30" text-anchor="middle" font-size="20" font-weight="bold" fill="#1a1a1a">What the dispatch notes say went wrong, by hub — 2025</text>
<text x="480.0" y="50" text-anchor="middle" font-size="12.5" fill="#555555">stg_dispatch_notes.exception_type, 2025: 599 notes. A proxy: the notes narrate about a quarter of the 2,421 route exceptions.</text>
<line x1="200.0" y1="104.0" x2="200.0" y2="380.0" stroke="#d9d9d9" stroke-width="1"/>
<text x="200.0" y="398.0" font-size="11.5" fill="#555555" text-anchor="middle" font-weight="normal">0</text>
<line x1="300.0" y1="104.0" x2="300.0" y2="380.0" stroke="#d9d9d9" stroke-width="1"/>
<text x="300.0" y="398.0" font-size="11.5" fill="#555555" text-anchor="middle" font-weight="normal">25</text>
<line x1="400.0" y1="104.0" x2="400.0" y2="380.0" stroke="#d9d9d9" stroke-width="1"/>
<text x="400.0" y="398.0" font-size="11.5" fill="#555555" text-anchor="middle" font-weight="normal">50</text>
<line x1="500.0" y1="104.0" x2="500.0" y2="380.0" stroke="#d9d9d9" stroke-width="1"/>
<text x="500.0" y="398.0" font-size="11.5" fill="#555555" text-anchor="middle" font-weight="normal">75</text>
<line x1="600.0" y1="104.0" x2="600.0" y2="380.0" stroke="#d9d9d9" stroke-width="1"/>
<text x="600.0" y="398.0" font-size="11.5" fill="#555555" text-anchor="middle" font-weight="normal">100</text>
<line x1="700.0" y1="104.0" x2="700.0" y2="380.0" stroke="#d9d9d9" stroke-width="1"/>
<text x="700.0" y="398.0" font-size="11.5" fill="#555555" text-anchor="middle" font-weight="normal">125</text>
<line x1="800.0" y1="104.0" x2="800.0" y2="380.0" stroke="#d9d9d9" stroke-width="1"/>
<text x="800.0" y="398.0" font-size="11.5" fill="#555555" text-anchor="middle" font-weight="normal">150</text>
<text x="500.0" y="420.0" font-size="12" fill="#555555" text-anchor="middle" font-weight="normal">Dispatch notes, 2025 (count)</text>
<rect x="200.0" y="120.8" width="120.0" height="32.4" fill="#1f4e79" stroke="#ffffff" stroke-width="1"/>
<text x="260.0" y="141.9" font-size="11" fill="#ffffff" text-anchor="middle" font-weight="bold">30</text>
<rect x="320.0" y="120.8" width="84.0" height="32.4" fill="#5b7fa6" stroke="#ffffff" stroke-width="1"/>
<text x="362.0" y="141.9" font-size="11" fill="#ffffff" text-anchor="middle" font-weight="bold">21</text>
<rect x="404.0" y="120.8" width="76.0" height="32.4" fill="#9aa7b5" stroke="#ffffff" stroke-width="1"/>
<text x="442.0" y="141.9" font-size="11" fill="#1a1a1a" text-anchor="middle" font-weight="bold">19</text>
<rect x="480.0" y="120.8" width="64.0" height="32.4" fill="#c9d3de" stroke="#ffffff" stroke-width="1"/>
<text x="512.0" y="141.9" font-size="11" fill="#1a1a1a" text-anchor="middle" font-weight="bold">16</text>
<rect x="544.0" y="120.8" width="60.0" height="32.4" fill="#c58a1b" stroke="#ffffff" stroke-width="1"/>
<text x="574.0" y="141.9" font-size="11" fill="#ffffff" text-anchor="middle" font-weight="bold">15</text>
<rect x="604.0" y="120.8" width="56.0" height="32.4" fill="#8c8c8c" stroke="#ffffff" stroke-width="1"/>
<text x="632.0" y="141.9" font-size="11" fill="#ffffff" text-anchor="middle" font-weight="bold">14</text>
<rect x="660.0" y="120.8" width="48.0" height="32.4" fill="#3d3d3d" stroke="#ffffff" stroke-width="1"/>
<text x="684.0" y="141.9" font-size="11" fill="#ffffff" text-anchor="middle" font-weight="bold">12</text>
<text x="714.0" y="135.4" font-size="11.5" fill="#1a1a1a" text-anchor="start" font-weight="bold">127 notes</text>
<text x="714.0" y="149.4" font-size="10.5" fill="#c0392b" text-anchor="start" font-weight="normal">vs 931 exceptions (14%)</text>
<text x="190.0" y="137.0" font-size="12.5" fill="#1a1a1a" text-anchor="end" font-weight="normal">Chicago</text>
<text x="190.0" y="151.0" font-size="10.5" fill="#555555" text-anchor="end" font-weight="normal">HUB-CHI</text>
<rect x="200.0" y="174.8" width="112.0" height="32.4" fill="#1f4e79" stroke="#ffffff" stroke-width="1"/>
<text x="256.0" y="195.9" font-size="11" fill="#ffffff" text-anchor="middle" font-weight="bold">28</text>
<rect x="312.0" y="174.8" width="68.0" height="32.4" fill="#5b7fa6" stroke="#ffffff" stroke-width="1"/>
<text x="346.0" y="195.9" font-size="11" fill="#ffffff" text-anchor="middle" font-weight="bold">17</text>
<rect x="380.0" y="174.8" width="64.0" height="32.4" fill="#9aa7b5" stroke="#ffffff" stroke-width="1"/>
<text x="412.0" y="195.9" font-size="11" fill="#1a1a1a" text-anchor="middle" font-weight="bold">16</text>
<rect x="444.0" y="174.8" width="44.0" height="32.4" fill="#c9d3de" stroke="#ffffff" stroke-width="1"/>
<text x="466.0" y="195.9" font-size="11" fill="#1a1a1a" text-anchor="middle" font-weight="bold">11</text>
<rect x="488.0" y="174.8" width="76.0" height="32.4" fill="#c58a1b" stroke="#ffffff" stroke-width="1"/>
<text x="526.0" y="195.9" font-size="11" fill="#ffffff" text-anchor="middle" font-weight="bold">19</text>
<rect x="564.0" y="174.8" width="56.0" height="32.4" fill="#8c8c8c" stroke="#ffffff" stroke-width="1"/>
<text x="592.0" y="195.9" font-size="11" fill="#ffffff" text-anchor="middle" font-weight="bold">14</text>
<rect x="620.0" y="174.8" width="20.0" height="32.4" fill="#3d3d3d" stroke="#ffffff" stroke-width="1"/>
<text x="630.0" y="195.9" font-size="11" fill="#ffffff" text-anchor="middle" font-weight="bold">5</text>
<text x="646.0" y="189.4" font-size="11.5" fill="#1a1a1a" text-anchor="start" font-weight="bold">110 notes</text>
<text x="646.0" y="203.4" font-size="10.5" fill="#555555" text-anchor="start" font-weight="normal">vs 352 exceptions (31%)</text>
<text x="190.0" y="191.0" font-size="12.5" fill="#1a1a1a" text-anchor="end" font-weight="normal">Cincinnati</text>
<text x="190.0" y="205.0" font-size="10.5" fill="#555555" text-anchor="end" font-weight="normal">HUB-CIN</text>
<rect x="200.0" y="228.8" width="120.0" height="32.4" fill="#1f4e79" stroke="#ffffff" stroke-width="1"/>
<text x="260.0" y="249.9" font-size="11" fill="#ffffff" text-anchor="middle" font-weight="bold">30</text>
<rect x="320.0" y="228.8" width="56.0" height="32.4" fill="#5b7fa6" stroke="#ffffff" stroke-width="1"/>
<text x="348.0" y="249.9" font-size="11" fill="#ffffff" text-anchor="middle" font-weight="bold">14</text>
<rect x="376.0" y="228.8" width="52.0" height="32.4" fill="#9aa7b5" stroke="#ffffff" stroke-width="1"/>
<text x="402.0" y="249.9" font-size="11" fill="#1a1a1a" text-anchor="middle" font-weight="bold">13</text>
<rect x="428.0" y="228.8" width="16.0" height="32.4" fill="#c9d3de" stroke="#ffffff" stroke-width="1"/>
<rect x="444.0" y="228.8" width="40.0" height="32.4" fill="#c58a1b" stroke="#ffffff" stroke-width="1"/>
<text x="464.0" y="249.9" font-size="11" fill="#ffffff" text-anchor="middle" font-weight="bold">10</text>
<rect x="484.0" y="228.8" width="56.0" height="32.4" fill="#8c8c8c" stroke="#ffffff" stroke-width="1"/>
<text x="512.0" y="249.9" font-size="11" fill="#ffffff" text-anchor="middle" font-weight="bold">14</text>
<rect x="540.0" y="228.8" width="60.0" height="32.4" fill="#3d3d3d" stroke="#ffffff" stroke-width="1"/>
<text x="570.0" y="249.9" font-size="11" fill="#ffffff" text-anchor="middle" font-weight="bold">15</text>
<text x="606.0" y="243.4" font-size="11.5" fill="#1a1a1a" text-anchor="start" font-weight="bold">100 notes</text>
<text x="606.0" y="257.4" font-size="10.5" fill="#555555" text-anchor="start" font-weight="normal">vs 369 exceptions (27%)</text>
<text x="190.0" y="245.0" font-size="12.5" fill="#1a1a1a" text-anchor="end" font-weight="normal">Columbus</text>
<text x="190.0" y="259.0" font-size="10.5" fill="#555555" text-anchor="end" font-weight="normal">HUB-CMH</text>
<rect x="200.0" y="282.8" width="116.0" height="32.4" fill="#1f4e79" stroke="#ffffff" stroke-width="1"/>
<text x="258.0" y="303.9" font-size="11" fill="#ffffff" text-anchor="middle" font-weight="bold">29</text>
<rect x="316.0" y="282.8" width="88.0" height="32.4" fill="#5b7fa6" stroke="#ffffff" stroke-width="1"/>
<text x="360.0" y="303.9" font-size="11" fill="#ffffff" text-anchor="middle" font-weight="bold">22</text>
<rect x="404.0" y="282.8" width="52.0" height="32.4" fill="#9aa7b5" stroke="#ffffff" stroke-width="1"/>
<text x="430.0" y="303.9" font-size="11" fill="#1a1a1a" text-anchor="middle" font-weight="bold">13</text>
<rect x="456.0" y="282.8" width="48.0" height="32.4" fill="#c9d3de" stroke="#ffffff" stroke-width="1"/>
<text x="480.0" y="303.9" font-size="11" fill="#1a1a1a" text-anchor="middle" font-weight="bold">12</text>
<rect x="504.0" y="282.8" width="60.0" height="32.4" fill="#c58a1b" stroke="#ffffff" stroke-width="1"/>
<text x="534.0" y="303.9" font-size="11" fill="#ffffff" text-anchor="middle" font-weight="bold">15</text>
<rect x="564.0" y="282.8" width="40.0" height="32.4" fill="#8c8c8c" stroke="#ffffff" stroke-width="1"/>
<text x="584.0" y="303.9" font-size="11" fill="#ffffff" text-anchor="middle" font-weight="bold">10</text>
<rect x="604.0" y="282.8" width="80.0" height="32.4" fill="#3d3d3d" stroke="#ffffff" stroke-width="1"/>
<text x="644.0" y="303.9" font-size="11" fill="#ffffff" text-anchor="middle" font-weight="bold">20</text>
<text x="690.0" y="297.4" font-size="11.5" fill="#1a1a1a" text-anchor="start" font-weight="bold">121 notes</text>
<text x="690.0" y="311.4" font-size="10.5" fill="#555555" text-anchor="start" font-weight="normal">vs 382 exceptions (32%)</text>
<text x="190.0" y="299.0" font-size="12.5" fill="#1a1a1a" text-anchor="end" font-weight="normal">Detroit</text>
<text x="190.0" y="313.0" font-size="10.5" fill="#555555" text-anchor="end" font-weight="normal">HUB-DET</text>
<rect x="200.0" y="336.8" width="124.0" height="32.4" fill="#1f4e79" stroke="#ffffff" stroke-width="1"/>
<text x="262.0" y="357.9" font-size="11" fill="#ffffff" text-anchor="middle" font-weight="bold">31</text>
<rect x="324.0" y="336.8" width="88.0" height="32.4" fill="#5b7fa6" stroke="#ffffff" stroke-width="1"/>
<text x="368.0" y="357.9" font-size="11" fill="#ffffff" text-anchor="middle" font-weight="bold">22</text>
<rect x="412.0" y="336.8" width="76.0" height="32.4" fill="#9aa7b5" stroke="#ffffff" stroke-width="1"/>
<text x="450.0" y="357.9" font-size="11" fill="#1a1a1a" text-anchor="middle" font-weight="bold">19</text>
<rect x="488.0" y="336.8" width="64.0" height="32.4" fill="#c9d3de" stroke="#ffffff" stroke-width="1"/>
<text x="520.0" y="357.9" font-size="11" fill="#1a1a1a" text-anchor="middle" font-weight="bold">16</text>
<rect x="552.0" y="336.8" width="56.0" height="32.4" fill="#c58a1b" stroke="#ffffff" stroke-width="1"/>
<text x="580.0" y="357.9" font-size="11" fill="#ffffff" text-anchor="middle" font-weight="bold">14</text>
<rect x="608.0" y="336.8" width="72.0" height="32.4" fill="#8c8c8c" stroke="#ffffff" stroke-width="1"/>
<text x="644.0" y="357.9" font-size="11" fill="#ffffff" text-anchor="middle" font-weight="bold">18</text>
<rect x="680.0" y="336.8" width="84.0" height="32.4" fill="#3d3d3d" stroke="#ffffff" stroke-width="1"/>
<text x="722.0" y="357.9" font-size="11" fill="#ffffff" text-anchor="middle" font-weight="bold">21</text>
<text x="770.0" y="351.4" font-size="11.5" fill="#1a1a1a" text-anchor="start" font-weight="bold">141 notes</text>
<text x="770.0" y="365.4" font-size="10.5" fill="#555555" text-anchor="start" font-weight="normal">vs 387 exceptions (36%)</text>
<text x="190.0" y="353.0" font-size="12.5" fill="#1a1a1a" text-anchor="end" font-weight="normal">Indianapolis</text>
<text x="190.0" y="367.0" font-size="10.5" fill="#555555" text-anchor="end" font-weight="normal">HUB-IND</text>
<rect x="80.0" y="70.0" width="14.0" height="12.0" fill="#1f4e79" stroke="none" stroke-width="1"/>
<text x="100.0" y="80.0" font-size="12" fill="#1a1a1a" text-anchor="start" font-weight="normal">weather</text>
<rect x="198.0" y="70.0" width="14.0" height="12.0" fill="#5b7fa6" stroke="none" stroke-width="1"/>
<text x="218.0" y="80.0" font-size="12" fill="#1a1a1a" text-anchor="start" font-weight="normal">traffic</text>
<rect x="316.0" y="70.0" width="14.0" height="12.0" fill="#9aa7b5" stroke="none" stroke-width="1"/>
<text x="336.0" y="80.0" font-size="12" fill="#1a1a1a" text-anchor="start" font-weight="normal">access</text>
<rect x="434.0" y="70.0" width="14.0" height="12.0" fill="#c9d3de" stroke="none" stroke-width="1"/>
<text x="454.0" y="80.0" font-size="12" fill="#1a1a1a" text-anchor="start" font-weight="normal">customer_nsf</text>
<rect x="552.0" y="70.0" width="14.0" height="12.0" fill="#c58a1b" stroke="none" stroke-width="1"/>
<text x="572.0" y="80.0" font-size="12" fill="#1a1a1a" text-anchor="start" font-weight="normal">mechanical</text>
<rect x="670.0" y="70.0" width="14.0" height="12.0" fill="#8c8c8c" stroke="none" stroke-width="1"/>
<text x="690.0" y="80.0" font-size="12" fill="#1a1a1a" text-anchor="start" font-weight="normal">volume</text>
<rect x="788.0" y="70.0" width="14.0" height="12.0" fill="#3d3d3d" stroke="none" stroke-width="1"/>
<text x="808.0" y="80.0" font-size="12" fill="#1a1a1a" text-anchor="start" font-weight="normal">address</text>
</svg>
