<svg xmlns="http://www.w3.org/2000/svg" width="960" height="500" viewBox="0 0 960 500" font-family="Helvetica, Arial, sans-serif">
<rect x="0" y="0" width="960" height="500" fill="#ffffff"/>
<text x="480.0" y="30" text-anchor="middle" font-size="20" font-weight="bold" fill="#1a1a1a">Network exceptions per 100 routes, by ISO week — 2025</text>
<text x="480.0" y="50" text-anchor="middle" font-size="12.5" fill="#555555">stg_routes, all hubs, weekofyear(service_date). Grey band = 2023–2024 monthly range; dashed = quiet-year mean (68.7). Week 1 also holds 29–31 Dec 2025.</text>
<rect x="100.0" y="279.4" width="820.0" height="38.4" fill="#ececec" stroke="none" stroke-width="1"/>
<line x1="100.0" y1="297.0" x2="920.0" y2="297.0" stroke="#3d3d3d" stroke-width="1.2" stroke-dasharray="6,4"/>
<line x1="100.0" y1="400.0" x2="920.0" y2="400.0" stroke="#d9d9d9" stroke-width="1"/>
<text x="92.0" y="404.0" font-size="11.5" fill="#555555" text-anchor="end" font-weight="normal">0</text>
<line x1="100.0" y1="340.0" x2="920.0" y2="340.0" stroke="#d9d9d9" stroke-width="1"/>
<text x="92.0" y="344.0" font-size="11.5" fill="#555555" text-anchor="end" font-weight="normal">40</text>
<line x1="100.0" y1="280.0" x2="920.0" y2="280.0" stroke="#d9d9d9" stroke-width="1"/>
<text x="92.0" y="284.0" font-size="11.5" fill="#555555" text-anchor="end" font-weight="normal">80</text>
<line x1="100.0" y1="220.0" x2="920.0" y2="220.0" stroke="#d9d9d9" stroke-width="1"/>
<text x="92.0" y="224.0" font-size="11.5" fill="#555555" text-anchor="end" font-weight="normal">120</text>
<line x1="100.0" y1="160.0" x2="920.0" y2="160.0" stroke="#d9d9d9" stroke-width="1"/>
<text x="92.0" y="164.0" font-size="11.5" fill="#555555" text-anchor="end" font-weight="normal">160</text>
<line x1="100.0" y1="100.0" x2="920.0" y2="100.0" stroke="#d9d9d9" stroke-width="1"/>
<text x="92.0" y="104.0" font-size="11.5" fill="#555555" text-anchor="end" font-weight="normal">200</text>
<text x="45.0" y="250.0" font-size="12" fill="#555555" text-anchor="middle" font-weight="normal" transform="rotate(-90 45.0 250.0)">Exceptions per 100 routes</text>
<line x1="107.9" y1="400.0" x2="107.9" y2="404.0" stroke="#555555" stroke-width="1"/>
<text x="107.9" y="418.0" font-size="11" fill="#1a1a1a" text-anchor="middle" font-weight="normal">1</text>
<line x1="171.0" y1="400.0" x2="171.0" y2="404.0" stroke="#555555" stroke-width="1"/>
<text x="171.0" y="418.0" font-size="11" fill="#1a1a1a" text-anchor="middle" font-weight="normal">5</text>
<line x1="234.0" y1="400.0" x2="234.0" y2="404.0" stroke="#555555" stroke-width="1"/>
<text x="234.0" y="418.0" font-size="11" fill="#1a1a1a" text-anchor="middle" font-weight="normal">9</text>
<line x1="297.1" y1="400.0" x2="297.1" y2="404.0" stroke="#555555" stroke-width="1"/>
<text x="297.1" y="418.0" font-size="11" fill="#1a1a1a" text-anchor="middle" font-weight="normal">13</text>
<line x1="360.2" y1="400.0" x2="360.2" y2="404.0" stroke="#555555" stroke-width="1"/>
<text x="360.2" y="418.0" font-size="11" fill="#1a1a1a" text-anchor="middle" font-weight="normal">17</text>
<line x1="439.0" y1="400.0" x2="439.0" y2="404.0" stroke="#555555" stroke-width="1"/>
<text x="439.0" y="418.0" font-size="11" fill="#1a1a1a" text-anchor="middle" font-weight="normal">22</text>
<line x1="502.1" y1="400.0" x2="502.1" y2="404.0" stroke="#555555" stroke-width="1"/>
<text x="502.1" y="418.0" font-size="11" fill="#1a1a1a" text-anchor="middle" font-weight="normal">26</text>
<line x1="581.0" y1="400.0" x2="581.0" y2="404.0" stroke="#555555" stroke-width="1"/>
<text x="581.0" y="418.0" font-size="11" fill="#1a1a1a" text-anchor="middle" font-weight="normal">31</text>
<line x1="644.0" y1="400.0" x2="644.0" y2="404.0" stroke="#555555" stroke-width="1"/>
<text x="644.0" y="418.0" font-size="11" fill="#1a1a1a" text-anchor="middle" font-weight="normal">35</text>
<line x1="722.9" y1="400.0" x2="722.9" y2="404.0" stroke="#555555" stroke-width="1"/>
<text x="722.9" y="418.0" font-size="11" fill="#1a1a1a" text-anchor="middle" font-weight="normal">40</text>
<line x1="801.7" y1="400.0" x2="801.7" y2="404.0" stroke="#555555" stroke-width="1"/>
<text x="801.7" y="418.0" font-size="11" fill="#1a1a1a" text-anchor="middle" font-weight="normal">45</text>
<line x1="849.0" y1="400.0" x2="849.0" y2="404.0" stroke="#555555" stroke-width="1"/>
<text x="849.0" y="418.0" font-size="11" fill="#1a1a1a" text-anchor="middle" font-weight="normal">48</text>
<line x1="912.1" y1="400.0" x2="912.1" y2="404.0" stroke="#555555" stroke-width="1"/>
<text x="912.1" y="418.0" font-size="11" fill="#1a1a1a" text-anchor="middle" font-weight="normal">52</text>
<text x="510.0" y="440.0" font-size="12" fill="#555555" text-anchor="middle" font-weight="normal">ISO week of 2025 (week 3 = 13–19 Jan; week 45 = 3–9 Nov)</text>
<rect x="100.0" y="100.0" width="141.9" height="300.0" fill="#c0392b" fill-opacity="0.06" stroke="none" stroke-width="1"/>
<text x="171.0" y="92.0" font-size="11.5" fill="#c0392b" text-anchor="middle" font-weight="bold">Wave 1: January storm, weeks 1–9</text>
<rect x="793.8" y="100.0" width="126.2" height="300.0" fill="#c0392b" fill-opacity="0.06" stroke="none" stroke-width="1"/>
<text x="856.9" y="92.0" font-size="11.5" fill="#c0392b" text-anchor="middle" font-weight="bold">Wave 2: weeks 45–52</text>
<polyline points="107.9,257.6 123.7,208.6 139.4,100.0 155.2,235.6 171.0,290.6 186.7,148.2 202.5,256.9 218.3,215.4 234.0,254.8 249.8,372.2 265.6,365.4 281.3,376.9 297.1,371.6 312.9,371.5 328.7,367.9 344.4,369.1 360.2,362.5 376.0,373.6 391.7,350.1 407.5,377.9 423.3,385.6 439.0,362.9 454.8,362.5 470.6,361.0 486.3,382.9 502.1,363.6 517.9,370.9 533.7,353.5 549.4,356.8 565.2,377.1 581.0,380.2 596.7,362.9 612.5,315.9 628.3,344.9 644.0,363.9 659.8,326.9 675.6,353.4 691.3,374.2 707.1,381.6 722.9,376.1 738.7,361.4 754.4,367.8 770.2,355.0 786.0,368.1 801.7,202.2 817.5,210.9 833.3,252.1 849.0,245.9 864.8,226.8 880.6,172.8 896.3,265.8 912.1,250.0" fill="none" stroke="#3d3d3d" stroke-width="2" stroke-linejoin="round"/>
<circle cx="107.9" cy="257.6" r="2.6" fill="#c0392b"/>
<circle cx="123.7" cy="208.6" r="2.6" fill="#c0392b"/>
<circle cx="139.4" cy="100.0" r="2.6" fill="#c0392b"/>
<circle cx="155.2" cy="235.6" r="2.6" fill="#c0392b"/>
<circle cx="171.0" cy="290.6" r="2.6" fill="#3d3d3d"/>
<circle cx="186.7" cy="148.2" r="2.6" fill="#c0392b"/>
<circle cx="202.5" cy="256.9" r="2.6" fill="#c0392b"/>
<circle cx="218.3" cy="215.4" r="2.6" fill="#c0392b"/>
<circle cx="234.0" cy="254.8" r="2.6" fill="#c0392b"/>
<circle cx="249.8" cy="372.2" r="2.6" fill="#3d3d3d"/>
<circle cx="265.6" cy="365.4" r="2.6" fill="#3d3d3d"/>
<circle cx="281.3" cy="376.9" r="2.6" fill="#3d3d3d"/>
<circle cx="297.1" cy="371.6" r="2.6" fill="#3d3d3d"/>
<circle cx="312.9" cy="371.5" r="2.6" fill="#3d3d3d"/>
<circle cx="328.7" cy="367.9" r="2.6" fill="#3d3d3d"/>
<circle cx="344.4" cy="369.1" r="2.6" fill="#3d3d3d"/>
<circle cx="360.2" cy="362.5" r="2.6" fill="#3d3d3d"/>
<circle cx="376.0" cy="373.6" r="2.6" fill="#3d3d3d"/>
<circle cx="391.7" cy="350.1" r="2.6" fill="#3d3d3d"/>
<circle cx="407.5" cy="377.9" r="2.6" fill="#3d3d3d"/>
<circle cx="423.3" cy="385.6" r="2.6" fill="#3d3d3d"/>
<circle cx="439.0" cy="362.9" r="2.6" fill="#3d3d3d"/>
<circle cx="454.8" cy="362.5" r="2.6" fill="#3d3d3d"/>
<circle cx="470.6" cy="361.0" r="2.6" fill="#3d3d3d"/>
<circle cx="486.3" cy="382.9" r="2.6" fill="#3d3d3d"/>
<circle cx="502.1" cy="363.6" r="2.6" fill="#3d3d3d"/>
<circle cx="517.9" cy="370.9" r="2.6" fill="#3d3d3d"/>
<circle cx="533.7" cy="353.5" r="2.6" fill="#3d3d3d"/>
<circle cx="549.4" cy="356.8" r="2.6" fill="#3d3d3d"/>
<circle cx="565.2" cy="377.1" r="2.6" fill="#3d3d3d"/>
<circle cx="581.0" cy="380.2" r="2.6" fill="#3d3d3d"/>
<circle cx="596.7" cy="362.9" r="2.6" fill="#3d3d3d"/>
<circle cx="612.5" cy="315.9" r="2.6" fill="#3d3d3d"/>
<circle cx="628.3" cy="344.9" r="2.6" fill="#3d3d3d"/>
<circle cx="644.0" cy="363.9" r="2.6" fill="#3d3d3d"/>
<circle cx="659.8" cy="326.9" r="2.6" fill="#3d3d3d"/>
<circle cx="675.6" cy="353.4" r="2.6" fill="#3d3d3d"/>
<circle cx="691.3" cy="374.2" r="2.6" fill="#3d3d3d"/>
<circle cx="707.1" cy="381.6" r="2.6" fill="#3d3d3d"/>
<circle cx="722.9" cy="376.1" r="2.6" fill="#3d3d3d"/>
<circle cx="738.7" cy="361.4" r="2.6" fill="#3d3d3d"/>
<circle cx="754.4" cy="367.8" r="2.6" fill="#3d3d3d"/>
<circle cx="770.2" cy="355.0" r="2.6" fill="#3d3d3d"/>
<circle cx="786.0" cy="368.1" r="2.6" fill="#3d3d3d"/>
<circle cx="801.7" cy="202.2" r="2.6" fill="#c0392b"/>
<circle cx="817.5" cy="210.9" r="2.6" fill="#c0392b"/>
<circle cx="833.3" cy="252.1" r="2.6" fill="#c0392b"/>
<circle cx="849.0" cy="245.9" r="2.6" fill="#c0392b"/>
<circle cx="864.8" cy="226.8" r="2.6" fill="#c0392b"/>
<circle cx="880.6" cy="172.8" r="2.6" fill="#c0392b"/>
<circle cx="896.3" cy="265.8" r="2.6" fill="#c0392b"/>
<circle cx="912.1" cy="250.0" r="2.6" fill="#c0392b"/>
<polygon points="133.4,108.0 145.4,108.0 139.4,98.0" fill="#c0392b"/>
<text x="149.4" y="118.0" font-size="11.5" fill="#c0392b" text-anchor="start" font-weight="bold" stroke="#ffffff" stroke-width="3" paint-order="stroke">wk 3 = 662.8 (570 exceptions on 86 routes) — off scale</text>
<text x="192.7" y="152.2" font-size="10.5" fill="#1a1a1a" text-anchor="start" font-weight="normal" stroke="#ffffff" stroke-width="3" paint-order="stroke">167.9</text>
<text x="880.6" y="164.8" font-size="10.5" fill="#1a1a1a" text-anchor="middle" font-weight="normal" stroke="#ffffff" stroke-width="3" paint-order="stroke">151.5</text>
<text x="517.9" y="262.0" font-size="11.5" fill="#1a1a1a" text-anchor="middle" font-weight="bold" stroke="#ffffff" stroke-width="3" paint-order="stroke">weeks 10–44: 23.7 per 100 (570 exc / 2,405 routes)</text>
<text x="920.0" y="291.0" font-size="11" fill="#3d3d3d" text-anchor="end" font-weight="normal" stroke="#ffffff" stroke-width="3" paint-order="stroke">quiet-year mean 68.7</text>
<text x="100.0" y="488.0" font-size="11" fill="#555555" text-anchor="start" font-weight="normal">Red dot = week above the top of the quiet-year range (80.4).</text>
</svg>
