<svg xmlns="http://www.w3.org/2000/svg" width="960" height="520" viewBox="0 0 960 520" font-family="Helvetica, Arial, sans-serif">
<rect x="0" y="0" width="960" height="520" fill="#ffffff"/>
<text x="480.0" y="30" text-anchor="middle" font-size="20" font-weight="bold" fill="#1a1a1a">Fleet maintenance spend by hub, 2023 / 2024 / 2025</text>
<text x="480.0" y="50" text-anchor="middle" font-size="12.5" fill="#555555">Work-order cost (stg_fleet_work_orders). Totals $90,355 / $104,101 / $267,578. 2025 bar split: red = collision repair ($169,799).</text>
<line x1="100.0" y1="420.0" x2="920.0" y2="420.0" stroke="#d9d9d9" stroke-width="1"/>
<text x="92.0" y="424.0" font-size="11.5" fill="#555555" text-anchor="end" font-weight="normal">$0k</text>
<line x1="100.0" y1="340.0" x2="920.0" y2="340.0" stroke="#d9d9d9" stroke-width="1"/>
<text x="92.0" y="344.0" font-size="11.5" fill="#555555" text-anchor="end" font-weight="normal">$20k</text>
<line x1="100.0" y1="260.0" x2="920.0" y2="260.0" stroke="#d9d9d9" stroke-width="1"/>
<text x="92.0" y="264.0" font-size="11.5" fill="#555555" text-anchor="end" font-weight="normal">$40k</text>
<line x1="100.0" y1="180.0" x2="920.0" y2="180.0" stroke="#d9d9d9" stroke-width="1"/>
<text x="92.0" y="184.0" font-size="11.5" fill="#555555" text-anchor="end" font-weight="normal">$60k</text>
<line x1="100.0" y1="100.0" x2="920.0" y2="100.0" stroke="#d9d9d9" stroke-width="1"/>
<text x="92.0" y="104.0" font-size="11.5" fill="#555555" text-anchor="end" font-weight="normal">$80k</text>
<text x="40.0" y="260.0" font-size="12" fill="#555555" text-anchor="middle" font-weight="normal" transform="rotate(-90 40.0 260.0)">Maintenance spend (USD)</text>
<rect x="119.7" y="369.7" width="39.4" height="50.3" fill="#9aa7b5" stroke="none"/>
<text x="139.4" y="364.7" font-size="10.5" fill="#1a1a1a" text-anchor="middle" font-weight="normal">$13k</text>
<rect x="163.0" y="349.6" width="39.4" height="70.4" fill="#5b7fa6" stroke="none"/>
<text x="182.7" y="344.6" font-size="10.5" fill="#1a1a1a" text-anchor="middle" font-weight="normal">$18k</text>
<rect x="206.4" y="162.2" width="39.4" height="60.2" fill="#2c6fbb" stroke="none"/>
<rect x="206.4" y="222.4" width="39.4" height="197.6" fill="#c0392b" stroke="none"/>
<text x="226.1" y="325.2" font-size="9.5" fill="#1a1a1a" text-anchor="middle" font-weight="normal" stroke="#ffffff" stroke-width="3" paint-order="stroke">$49k</text>
<text x="226.1" y="157.2" font-size="10.5" fill="#1a1a1a" text-anchor="middle" font-weight="normal">$64k</text>
<text x="182.0" y="440.0" font-size="12" fill="#1a1a1a" text-anchor="middle" font-weight="normal">Chicago</text>
<text x="182.0" y="456.0" font-size="10.5" fill="#555555" text-anchor="middle" font-weight="normal">HUB-CHI</text>
<rect x="283.7" y="350.3" width="39.4" height="69.7" fill="#9aa7b5" stroke="none"/>
<text x="303.4" y="345.3" font-size="10.5" fill="#1a1a1a" text-anchor="middle" font-weight="normal">$17k</text>
<rect x="327.0" y="418.3" width="39.4" height="1.7" fill="#5b7fa6" stroke="none"/>
<text x="346.7" y="413.3" font-size="10.5" fill="#1a1a1a" text-anchor="middle" font-weight="normal">$0.4k</text>
<rect x="370.4" y="294.6" width="39.4" height="85.3" fill="#2c6fbb" stroke="none"/>
<rect x="370.4" y="379.9" width="39.4" height="40.1" fill="#c0392b" stroke="none"/>
<text x="390.1" y="403.9" font-size="9.5" fill="#1a1a1a" text-anchor="middle" font-weight="normal" stroke="#ffffff" stroke-width="3" paint-order="stroke">$10k</text>
<text x="390.1" y="289.6" font-size="10.5" fill="#1a1a1a" text-anchor="middle" font-weight="normal">$31k</text>
<text x="346.0" y="440.0" font-size="12" fill="#1a1a1a" text-anchor="middle" font-weight="normal">Cincinnati</text>
<text x="346.0" y="456.0" font-size="10.5" fill="#555555" text-anchor="middle" font-weight="normal">HUB-CIN</text>
<rect x="447.7" y="357.8" width="39.4" height="62.2" fill="#9aa7b5" stroke="none"/>
<text x="467.4" y="352.8" font-size="10.5" fill="#1a1a1a" text-anchor="middle" font-weight="normal">$16k</text>
<rect x="491.0" y="227.8" width="39.4" height="192.2" fill="#5b7fa6" stroke="none"/>
<text x="510.7" y="222.8" font-size="10.5" fill="#1a1a1a" text-anchor="middle" font-weight="normal">$48k</text>
<rect x="534.4" y="107.7" width="39.4" height="93.8" fill="#2c6fbb" stroke="none"/>
<rect x="534.4" y="201.5" width="39.4" height="218.5" fill="#c0392b" stroke="none"/>
<text x="554.1" y="314.7" font-size="9.5" fill="#1a1a1a" text-anchor="middle" font-weight="normal" stroke="#ffffff" stroke-width="3" paint-order="stroke">$55k</text>
<text x="554.1" y="102.7" font-size="10.5" fill="#1a1a1a" text-anchor="middle" font-weight="normal">$78k</text>
<text x="510.0" y="440.0" font-size="12" fill="#1a1a1a" text-anchor="middle" font-weight="normal">Columbus</text>
<text x="510.0" y="456.0" font-size="10.5" fill="#555555" text-anchor="middle" font-weight="normal">HUB-CMH</text>
<rect x="611.7" y="308.0" width="39.4" height="112.0" fill="#9aa7b5" stroke="none"/>
<text x="631.4" y="303.0" font-size="10.5" fill="#1a1a1a" text-anchor="middle" font-weight="normal">$28k</text>
<rect x="655.0" y="340.7" width="39.4" height="79.3" fill="#5b7fa6" stroke="none"/>
<text x="674.7" y="335.7" font-size="10.5" fill="#1a1a1a" text-anchor="middle" font-weight="normal">$20k</text>
<rect x="698.4" y="233.7" width="39.4" height="36.5" fill="#2c6fbb" stroke="none"/>
<rect x="698.4" y="270.1" width="39.4" height="149.9" fill="#c0392b" stroke="none"/>
<text x="718.1" y="349.1" font-size="9.5" fill="#1a1a1a" text-anchor="middle" font-weight="normal" stroke="#ffffff" stroke-width="3" paint-order="stroke">$37k</text>
<text x="718.1" y="228.7" font-size="10.5" fill="#1a1a1a" text-anchor="middle" font-weight="normal">$47k</text>
<text x="674.0" y="440.0" font-size="12" fill="#1a1a1a" text-anchor="middle" font-weight="normal">Detroit</text>
<text x="674.0" y="456.0" font-size="10.5" fill="#555555" text-anchor="middle" font-weight="normal">HUB-DET</text>
<rect x="775.7" y="352.7" width="39.4" height="67.3" fill="#9aa7b5" stroke="none"/>
<text x="795.4" y="347.7" font-size="10.5" fill="#1a1a1a" text-anchor="middle" font-weight="normal">$17k</text>
<rect x="819.0" y="347.2" width="39.4" height="72.8" fill="#5b7fa6" stroke="none"/>
<text x="838.7" y="342.2" font-size="10.5" fill="#1a1a1a" text-anchor="middle" font-weight="normal">$18k</text>
<rect x="862.4" y="231.6" width="39.4" height="115.3" fill="#2c6fbb" stroke="none"/>
<rect x="862.4" y="347.0" width="39.4" height="73.0" fill="#c0392b" stroke="none"/>
<text x="882.1" y="387.5" font-size="9.5" fill="#1a1a1a" text-anchor="middle" font-weight="normal" stroke="#ffffff" stroke-width="3" paint-order="stroke">$18k</text>
<text x="882.1" y="226.6" font-size="10.5" fill="#1a1a1a" text-anchor="middle" font-weight="normal">$47k</text>
<text x="838.0" y="440.0" font-size="12" fill="#1a1a1a" text-anchor="middle" font-weight="normal">Indianapolis</text>
<text x="838.0" y="456.0" font-size="10.5" fill="#555555" text-anchor="middle" font-weight="normal">HUB-IND</text>
<rect x="100.0" y="66.0" width="14.0" height="12.0" fill="#9aa7b5" stroke="none"/>
<text x="120.0" y="76.0" font-size="12" fill="#1a1a1a" text-anchor="start" font-weight="normal">2023</text>
<rect x="300.0" y="66.0" width="14.0" height="12.0" fill="#5b7fa6" stroke="none"/>
<text x="320.0" y="76.0" font-size="12" fill="#1a1a1a" text-anchor="start" font-weight="normal">2024</text>
<rect x="500.0" y="66.0" width="14.0" height="12.0" fill="#2c6fbb" stroke="none"/>
<text x="520.0" y="76.0" font-size="12" fill="#1a1a1a" text-anchor="start" font-weight="normal">2025 other repair &amp; service</text>
<rect x="700.0" y="66.0" width="14.0" height="12.0" fill="#c0392b" stroke="none"/>
<text x="720.0" y="76.0" font-size="12" fill="#1a1a1a" text-anchor="start" font-weight="normal">2025 collision repair</text>
<text x="510.0" y="510.0" font-size="12" fill="#555555" text-anchor="middle" font-weight="normal">Hub (vehicle's home hub)</text>
</svg>
